# xmcd
#
# Track frame offsets:
#	150
#	43612
#	89772
#	120695
#	158187
#	212082
#	266841
#	311671
#
# Disc length: 4292 seconds
#
# Revision: 1
# Processed by: cddbd v1.5.2PL0 Copyright (c) Steve Scherf et al.
# Submitted via: audiograbber 1.83.01
#
DISCID=7310c208
DTITLE=Grateful Dead - 80-08-30 The Spectrum, Philadelphia PA
DYEAR=1900
DGENRE=
TTITLE0=Scarlet Begonias
TTITLE1=Fire On The Mountain
TTITLE2=C C Rider
TTITLE3=Ramble On Rose
TTITLE4=Estimated Prophet
TTITLE5=Eyes Of The World
TTITLE6=Drums
TTITLE7=Space
EXTD=
EXTT0=
EXTT1=
EXTT2=
EXTT3=
EXTT4=
EXTT5=
EXTT6=
EXTT7=
PLAYORDER=
